<svg version="1.1" id="Layer_1" xmlns="http://www.w3.org/2000/svg" xmlns:xlink="http://www.w3.org/1999/xlink" x="0px" y="0px"
	 width="48" height="45" viewBox="0 0 779 535"  xml:space="preserve">
<path fill="none" opacity="1.000000" stroke="none" 
	d="
M780.000000,490.000000 
	C780.000000,505.329498 780.000000,520.658997 780.000000,535.991333 
	C520.402405,535.994263 260.804779,535.994263 1.103585,535.994263 
	C1.103585,357.780548 1.103585,179.561035 1.103585,1.000000 
	C118.356438,1.000000 235.713211,1.000000 353.534973,1.468657 
	C353.243469,21.022274 355.998993,40.345222 350.030426,59.077946 
	C348.266449,64.614182 347.473511,70.596344 344.920959,75.719147 
	C337.275055,91.064178 329.602264,106.458450 320.804016,121.153389 
	C303.652588,149.799988 286.546356,178.536301 267.871307,206.188599 
	C252.426575,229.057770 235.064499,250.667557 217.953888,272.363708 
	C206.619125,286.736084 194.286591,300.326538 182.237808,314.124786 
	C180.707092,315.877747 178.270065,316.929688 176.109848,318.023956 
	C171.476608,320.370972 166.749893,322.533478 162.061447,324.771545 
	C162.211823,325.181030 162.362198,325.590515 162.512573,326.000000 
	C168.977478,326.000000 175.450043,326.184326 181.903793,325.916046 
	C184.787842,325.796143 187.827942,325.217865 190.467773,324.081970 
	C219.521088,311.580566 249.422531,301.867859 280.262604,294.689941 
	C310.181458,287.726471 340.477203,283.581451 371.025055,282.298553 
	C392.012573,281.417175 413.155792,282.750183 434.157074,284.166168 
	C450.701447,285.281647 467.297424,287.173279 483.585144,290.237183 
	C519.159729,296.929138 554.056152,306.467926 587.145386,321.328094 
	C598.021667,326.212555 608.562012,326.161682 619.783325,325.142609 
	C615.485596,322.317780 610.807678,320.382690 606.564819,317.747131 
	C602.153381,315.006775 597.848816,311.922577 594.078125,308.372101 
	C590.506653,305.009247 587.691467,300.844086 584.537598,297.036804 
	C571.496948,281.294464 557.675171,266.126282 545.591919,249.680588 
	C526.810059,224.117920 508.330505,198.244293 491.357513,171.466339 
	C474.453308,144.796921 459.381653,116.952934 443.887573,89.409584 
	C438.280792,79.442566 433.678406,69.122284 431.239716,57.539845 
	C429.564697,49.584530 428.016602,41.848274 428.003418,33.767849 
	C427.988464,24.602325 428.051758,15.436214 427.954803,6.271694 
	C427.936157,4.511292 427.333344,2.757071 427.000000,0.999999 
	C544.605835,1.000000 662.211609,1.000000 780.000000,1.000000 
	C780.000000,160.356613 780.000000,319.713287 779.531372,479.534973 
	C767.475464,480.000000 755.888184,480.000000 743.858887,480.000000 
	C743.858887,456.980530 743.858887,434.726501 743.858887,412.399536 
	C740.022095,412.399536 736.653137,412.399536 733.314453,412.399536 
	C733.314453,438.381775 733.314453,463.963226 733.314453,490.000000 
	C749.083557,490.000000 764.541748,490.000000 780.000000,490.000000 
M521.592102,456.851776 
	C524.433716,434.413116 510.251770,410.726349 482.707062,411.931763 
	C472.958862,412.358368 463.176300,412.000000 453.421844,412.000000 
	C453.421844,438.364624 453.421844,464.063049 453.421844,488.998016 
	C466.605682,488.998016 479.547150,490.363098 492.067993,488.651550 
	C507.627625,486.524628 519.890381,472.020386 521.592102,456.851776 
M599.462891,450.030365 
	C600.171631,449.324951 600.872498,448.611298 601.590454,447.915375 
	C610.338989,439.435547 608.321533,420.378998 596.843384,415.100403 
	C592.941345,413.305939 588.387695,412.320618 584.081482,412.135223 
	C574.174255,411.708618 564.236145,412.000000 554.298950,412.000000 
	C554.298950,438.345825 554.298950,463.932922 554.298950,489.600586 
	C557.978760,489.600586 561.347046,489.600586 565.170715,489.600586 
	C565.170715,478.279541 565.170715,467.351532 565.170715,456.471802 
	C577.123596,455.603821 574.832397,454.724518 579.842041,463.494873 
	C582.779419,468.637238 586.689575,473.378418 588.749329,478.833527 
	C592.377747,488.443146 598.646362,491.979065 608.446289,489.964417 
	C608.727661,489.906616 608.982422,489.719269 609.738525,489.359955 
	C602.641113,478.066528 595.583740,466.836945 588.809692,456.058105 
	C592.242676,454.195221 595.596680,452.375153 599.462891,450.030365 
M279.367615,489.998993 
	C282.764221,490.536377 283.068665,488.572021 283.041687,485.858154 
	C282.937866,475.415588 282.999573,464.971375 282.999573,454.364471 
	C296.249939,454.364471 308.947510,454.364471 322.098389,454.364471 
	C322.098389,466.308960 322.098389,477.896393 322.098389,489.625488 
	C326.264252,489.625488 329.965240,489.625488 333.724182,489.625488 
	C333.724182,463.676666 333.724182,438.103302 333.724182,412.372986 
	C329.740143,412.372986 326.038605,412.372986 321.883728,412.372986 
	C321.883728,422.992310 321.883728,433.247711 321.883728,443.622864 
	C308.723969,443.622864 296.026123,443.622864 282.876038,443.622864 
	C282.876038,432.997589 282.876038,422.742035 282.876038,412.387726 
	C279.042999,412.387726 275.675415,412.387726 272.287598,412.387726 
	C272.287598,438.349945 272.287598,463.923370 272.287598,489.999939 
	C274.523590,489.999939 276.478485,489.999939 279.367615,489.998993 
M412.368073,455.000000 
	C414.129913,455.000000 415.891785,455.000000 417.721710,455.000000 
	C417.721710,451.358032 417.721710,448.437622 417.721710,444.892822 
	C405.414368,444.892822 393.372040,444.892822 381.285706,444.892822 
	C381.285706,437.009369 381.285706,429.760284 381.285706,421.888367 
	C394.601624,421.888367 407.646942,421.888367 420.709167,421.888367 
	C420.709167,418.334961 420.709167,415.412415 420.709167,412.377197 
	C403.720306,412.377197 387.024658,412.377197 370.277527,412.377197 
	C370.277527,438.326813 370.277527,463.898315 370.277527,489.642334 
	C387.920654,489.642334 405.284424,489.642334 422.721497,489.642334 
	C422.721497,486.359314 422.721497,483.437378 422.721497,479.893829 
	C408.748718,479.893829 395.039429,479.893829 381.283875,479.893829 
	C381.283875,471.345917 381.283875,463.430573 381.283875,455.000000 
	C391.507019,455.000000 401.453827,455.000000 412.368073,455.000000 
M39.009247,491.987701 
	C43.338703,491.991791 47.672234,492.118805 51.996811,491.975555 
	C62.355392,491.632446 70.331535,486.652985 77.519089,478.844086 
	C75.987259,477.452393 74.786049,476.345734 73.568169,475.257690 
	C70.305069,472.342529 67.845474,471.423615 63.793312,475.288055 
	C57.152439,481.621399 48.446068,482.601562 39.694138,480.228851 
	C21.327288,475.249451 13.990747,454.428467 22.095930,436.860870 
	C29.668320,420.447998 48.493561,416.559448 58.889576,424.044525 
	C65.588463,428.867676 69.721252,428.642822 74.910927,423.493469 
	C75.144508,423.261719 75.324524,422.975952 75.866028,422.287476 
	C74.630486,420.773590 73.535179,418.915833 71.978249,417.607422 
	C61.867138,409.110291 49.457504,407.854736 37.720692,410.533112 
	C13.068917,416.158752 3.513587,437.243500 7.783094,460.273773 
	C10.909366,477.137238 21.765753,487.360626 39.009247,491.987701 
M145.116791,463.248688 
	C148.092331,471.085571 150.970596,478.961914 154.122528,486.727173 
	C154.780930,488.349213 156.275360,490.511536 157.688034,490.770721 
	C160.963959,491.371826 164.425354,490.962006 167.677551,490.962006 
	C167.813095,489.803375 167.977554,489.427155 167.871597,489.156982 
	C158.449142,465.132080 148.787552,441.197113 139.729919,417.035767 
	C137.672852,411.548462 133.988846,413.475677 130.568665,412.984589 
	C127.148376,412.493469 126.026749,414.585449 124.990181,417.307129 
	C119.550148,431.591003 113.952896,445.814880 108.469521,460.082367 
	C104.594193,470.165833 100.813126,480.285522 96.954483,490.482788 
	C109.393990,492.266846 110.195763,491.616791 114.012062,480.704346 
	C119.982765,463.631470 126.227699,446.654480 132.547470,429.106537 
	C136.844162,440.621521 140.920502,451.545990 145.116791,463.248688 
M664.396423,432.153656 
	C664.754639,431.294312 665.112915,430.434967 665.484680,429.543060 
	C666.313110,431.388855 667.225830,433.140808 667.904846,434.979065 
	C674.329590,452.371033 680.670349,469.794312 687.189941,487.150482 
	C687.746948,488.633362 689.279785,490.576233 690.598755,490.783783 
	C693.915894,491.305786 697.370178,490.956512 700.823181,490.956512 
	C700.823181,489.732147 700.967773,489.189514 700.802490,488.768524 
	C691.443481,464.930756 681.854431,441.179993 672.835205,417.214691 
	C670.844849,411.926056 667.331360,413.344147 663.796692,412.956848 
	C660.167358,412.559113 659.043579,414.619110 657.927368,417.558167 
	C651.925232,433.362000 645.692627,449.078033 639.612061,464.852325 
	C636.332275,473.361145 633.197388,481.925873 629.798950,490.994019 
	C633.830322,490.994019 637.168152,491.229034 640.442383,490.875275 
	C641.706421,490.738708 643.488464,489.510773 643.912537,488.364807 
	C650.746033,469.897308 657.398376,451.362762 664.396423,432.153656 
M207.000000,452.500000 
	C207.000000,464.910919 207.000000,477.321838 207.000000,489.684387 
	C211.048782,489.684387 214.304443,489.684387 218.167480,489.684387 
	C218.167480,467.012390 218.167480,444.648560 218.167480,421.841675 
	C226.707230,421.841675 234.630112,421.841675 242.593597,421.841675 
	C242.593597,418.340607 242.593597,415.305756 242.593597,412.306183 
	C222.277054,412.306183 202.368317,412.306183 182.405304,412.306183 
	C182.405304,415.657196 182.405304,418.692078 182.405304,422.177795 
	C190.726364,422.177795 198.647049,422.177795 207.000000,422.177795 
	C207.000000,432.254608 207.000000,441.877319 207.000000,452.500000 
z"/>
<path fill="#B5A77E" opacity="1.000000" stroke="none" 
	d="
M426.750000,0.999999 
	C427.333344,2.757071 427.936157,4.511292 427.954803,6.271694 
	C428.051758,15.436214 427.988464,24.602325 428.003418,33.767849 
	C428.016602,41.848274 429.564697,49.584530 431.239716,57.539845 
	C433.678406,69.122284 438.280792,79.442566 443.887573,89.409584 
	C459.381653,116.952934 474.453308,144.796921 491.357513,171.466339 
	C508.330505,198.244293 526.810059,224.117920 545.591919,249.680588 
	C557.675171,266.126282 571.496948,281.294464 584.537598,297.036804 
	C587.691467,300.844086 590.506653,305.009247 594.078125,308.372101 
	C597.848816,311.922577 602.153381,315.006775 606.564819,317.747131 
	C610.807678,320.382690 615.485596,322.317780 619.783325,325.142609 
	C608.562012,326.161682 598.021667,326.212555 587.145386,321.328094 
	C554.056152,306.467926 519.159729,296.929138 483.585144,290.237183 
	C467.297424,287.173279 450.701447,285.281647 434.157074,284.166168 
	C413.155792,282.750183 392.012573,281.417175 371.025055,282.298553 
	C340.477203,283.581451 310.181458,287.726471 280.262604,294.689941 
	C249.422531,301.867859 219.521088,311.580566 190.467773,324.081970 
	C187.827942,325.217865 184.787842,325.796143 181.903793,325.916046 
	C175.450043,326.184326 168.977478,326.000000 162.512573,326.000000 
	C162.362198,325.590515 162.211823,325.181030 162.061447,324.771545 
	C166.749893,322.533478 171.476608,320.370972 176.109848,318.023956 
	C178.270065,316.929688 180.707092,315.877747 182.237808,314.124786 
	C194.286591,300.326538 206.619125,286.736084 217.953888,272.363708 
	C235.064499,250.667557 252.426575,229.057770 267.871307,206.188599 
	C286.546356,178.536301 303.652588,149.799988 320.804016,121.153389 
	C329.602264,106.458450 337.275055,91.064178 344.920959,75.719147 
	C347.473511,70.596344 348.266449,64.614182 350.030426,59.077946 
	C355.998993,40.345222 353.243469,21.022274 354.000000,1.468657 
	C354.444458,1.000000 354.888885,1.000000 355.666687,1.468160 
	C356.333618,17.512587 356.626862,33.089970 357.057495,48.663551 
	C357.105499,50.398869 357.969147,52.104214 358.394562,53.838165 
	C359.103088,56.725910 359.763000,59.625576 360.561066,63.020878 
	C361.462860,62.820404 363.099365,62.707153 364.521057,62.094959 
	C369.354675,60.013538 375.062134,58.773056 378.711884,55.365093 
	C387.776459,46.900902 395.698761,48.543201 403.930878,55.974026 
	C404.535278,56.519646 405.209625,57.063801 405.950104,57.370529 
	C411.047913,59.482201 416.171997,61.530487 420.700989,63.361935 
	C422.025238,59.136154 422.946259,56.299995 423.796509,53.442787 
	C424.259399,51.887318 424.910553,50.304100 424.951569,48.719791 
	C425.363556,32.814812 425.666412,16.907007 426.000000,1.000000 
	C426.000000,1.000000 426.500000,1.000000 426.750000,0.999999 
M247.861496,292.013275 
	C256.572449,289.708740 265.306610,287.485901 273.971924,285.020874 
	C275.449036,284.600677 277.229767,283.431305 277.859192,282.122009 
	C286.499329,264.148865 295.236023,246.213516 303.408661,228.026093 
	C318.388855,194.688995 329.489868,159.990646 338.648499,124.652016 
	C339.989105,119.479301 341.054352,114.235229 342.247040,109.024170 
	C335.296509,124.085480 329.566010,139.493820 322.709381,154.383575 
	C313.750183,173.839249 304.394684,193.149384 294.290314,212.030121 
	C284.673950,229.999008 273.998505,247.408722 263.545105,264.918884 
	C258.163818,273.932983 252.252213,282.630463 246.101624,291.705627 
	C245.937057,292.038177 245.772491,292.370728 245.607910,292.703278 
	C246.094452,292.496063 246.580994,292.288849 247.861496,292.013275 
M585.201050,308.572052 
	C585.618164,308.599731 586.035217,308.627411 586.452332,308.655090 
	C586.109192,308.261658 585.766113,307.868195 585.146484,306.864502 
	C579.880859,300.526276 574.569702,294.225250 569.359253,287.841919 
	C558.945190,275.083557 547.963501,262.729675 538.340271,249.397354 
	C520.743408,225.017975 503.571381,200.308273 486.984711,175.231979 
	C476.472351,159.339066 467.312836,142.549515 457.601074,126.129822 
	C454.184113,120.352707 450.929535,114.479515 447.600800,108.650185 
	C447.125519,109.540718 447.128876,110.209785 447.366272,110.781700 
	C454.736694,128.539703 461.572784,146.547241 469.671295,163.967728 
	C478.351654,182.639908 487.550507,201.141876 497.744568,219.021683 
	C510.603973,241.576233 524.611633,263.480865 538.356995,285.520477 
	C540.415405,288.820953 543.222595,292.594360 546.578552,293.978241 
	C559.162292,299.167328 572.117249,303.456055 585.201050,308.572052 
M358.000000,245.500000 
	C358.000000,254.914307 358.000000,264.328613 358.000000,273.688477 
	C380.385406,273.688477 401.962463,273.688477 423.426636,273.688477 
	C423.666809,273.084808 423.890869,272.786804 423.888184,272.490875 
	C423.599731,240.736023 423.298340,208.981262 422.965881,177.226837 
	C422.957581,176.431992 422.611389,175.636215 422.394501,174.848663 
	C417.707306,157.826614 406.805420,144.697769 395.353760,131.955170 
	C392.504974,128.785217 389.341125,128.413879 386.298248,132.157043 
	C382.554138,136.762817 378.423981,141.063126 374.805481,145.761047 
	C364.872345,158.657333 357.636475,172.550858 357.928711,189.537247 
	C358.243835,207.853149 358.000000,226.178680 358.000000,245.500000 
M288.894623,185.347656 
	C273.586121,206.932327 258.643951,228.789764 242.846146,250.010178 
	C231.451553,265.315948 218.936600,279.788910 206.882233,294.601471 
	C202.797180,299.621277 198.592422,304.543640 193.772064,310.312744 
	C195.580154,309.836365 196.357864,309.693970 197.091232,309.428894 
	C208.056519,305.465363 218.897018,301.096924 230.031952,297.690155 
	C234.872803,296.209106 238.093201,293.775848 240.698013,289.717804 
	C245.756393,281.837250 251.363190,274.291626 256.130219,266.244415 
	C269.625702,243.462616 283.582458,220.902695 295.892090,197.485046 
	C307.065887,176.228149 316.442749,154.017151 326.340515,132.104248 
	C329.753326,124.548592 332.349091,116.623894 335.318054,108.867783 
	C328.326202,119.340782 322.355347,130.268585 315.962555,140.943741 
	C307.178009,155.612747 298.073975,170.090439 288.894623,185.347656 
M521.238342,287.127197 
	C525.694763,288.359375 530.151123,289.591553 535.648804,291.111664 
	C496.063141,233.496964 464.585541,172.970825 440.311523,107.410309 
	C440.148407,109.277405 439.914001,109.944183 440.066559,110.505859 
	C445.178284,129.326447 449.765198,148.312820 455.587067,166.912430 
	C467.705719,205.628845 483.724487,242.775360 502.302460,278.835266 
	C504.020721,282.170410 506.027588,284.325439 509.795258,284.901520 
	C513.357605,285.446167 516.872253,286.303009 521.238342,287.127197 
M342.973846,129.461121 
	C339.503235,141.602676 336.309143,153.831451 332.511017,165.869690 
	C320.255280,204.714661 304.638763,242.187057 285.905701,278.359192 
	C285.217346,279.688385 284.659241,281.084991 283.907654,282.743042 
	C289.672821,281.715118 294.622498,280.632385 299.628723,279.992157 
	C305.497681,279.241608 309.228729,277.029083 310.885284,270.594025 
	C315.544525,252.494675 321.444458,234.708374 325.894104,216.562973 
	C331.707489,192.856430 336.694000,168.944290 341.827423,145.075668 
	C343.336700,138.058044 344.137787,130.888107 345.263428,123.787971 
	C345.001434,123.737381 344.739471,123.686790 344.477478,123.636200 
	C343.990723,125.306473 343.503937,126.976746 342.973846,129.461121 
M446.972382,177.623444 
	C448.312592,183.707596 449.413971,189.856186 451.034454,195.864746 
	C457.952911,221.517395 465.019073,247.130219 472.048279,272.752960 
	C472.844879,275.656769 473.782196,278.469635 477.435272,278.959534 
	C484.071045,279.849365 490.700348,280.787323 498.033051,281.802124 
	C471.231995,231.336258 451.356903,178.611328 437.691620,123.530090 
	C437.251038,123.633797 436.810455,123.737503 436.369843,123.841209 
	C439.869598,141.484100 443.369324,159.126984 446.972382,177.623444 
M439.999969,181.470566 
	C440.328705,184.077423 440.807465,186.675430 440.961945,189.292572 
	C442.012665,207.095551 443.059937,224.899246 443.973145,242.709641 
	C444.456238,252.132004 444.516785,261.578552 445.156158,270.987823 
	C445.257996,272.486237 447.233765,274.849548 448.642792,275.095306 
	C454.759766,276.162140 460.987732,276.592621 466.869385,277.221741 
	C457.743561,242.572449 448.713959,208.288437 440.000000,175.202881 
	C440.000000,176.051041 440.000000,178.297745 439.999969,181.470566 
M337.999969,241.585205 
	C338.673370,228.391342 339.341888,215.197205 340.034760,202.004364 
	C340.068695,201.358414 340.407562,200.729645 340.449677,200.082794 
	C340.995850,191.697006 341.513977,183.309402 341.998688,175.568558 
	C333.161987,208.994141 324.194397,242.914841 315.204987,276.918091 
	C321.722595,275.890320 328.626617,274.801636 336.302063,273.591278 
	C336.869598,263.216461 337.434784,252.884064 337.999969,241.585205 
M400.000000,98.403015 
	C399.681732,91.486580 399.531830,84.556870 398.988220,77.658188 
	C398.601135,72.745796 395.464386,68.784065 390.955078,68.300087 
	C385.850250,67.752190 383.542023,72.689690 383.093628,76.922684 
	C382.126984,86.047356 382.046021,95.265854 381.593323,104.638565 
	C388.254791,104.638565 393.947754,104.638565 400.000000,104.638565 
	C400.000000,102.643150 400.000000,101.006973 400.000000,98.403015 
M375.000000,95.503891 
	C374.995972,92.677864 375.162537,89.838715 374.946564,87.028984 
	C374.649292,83.162613 370.114777,76.900513 367.528320,77.391739 
	C363.486176,78.159439 360.307251,80.770805 359.906555,85.258392 
	C359.328644,91.731018 359.103149,98.235115 358.730255,104.674690 
	C364.749451,104.674690 369.661285,104.674690 375.000000,104.674690 
	C375.000000,101.728935 375.000000,99.103210 375.000000,95.503891 
M407.000854,101.294212 
	C407.686127,102.518997 408.297394,104.746689 409.068848,104.803604 
	C413.612823,105.138847 418.194122,104.968582 423.484406,104.968582 
	C422.950226,97.755623 422.707581,91.343147 421.919403,84.998444 
	C421.437714,81.121109 418.516724,77.615929 414.975403,77.921204 
	C412.337006,78.148636 409.848053,81.717430 407.613373,84.099167 
	C406.887329,84.872993 407.044556,86.596596 407.024261,87.889336 
	C406.959198,92.038200 407.000031,96.188736 407.000854,101.294212 
z"/>
<path fill="none" opacity="1.000000" stroke="none" 
	d="
M425.531342,1.000000 
	C425.666412,16.907007 425.363556,32.814812 424.951569,48.719791 
	C424.910553,50.304100 424.259399,51.887318 423.796509,53.442787 
	C422.946259,56.299995 422.025238,59.136154 420.700989,63.361935 
	C416.171997,61.530487 411.047913,59.482201 405.950104,57.370529 
	C405.209625,57.063801 404.535278,56.519646 403.930878,55.974026 
	C395.698761,48.543201 387.776459,46.900902 378.711884,55.365093 
	C375.062134,58.773056 369.354675,60.013538 364.521057,62.094959 
	C363.099365,62.707153 361.462860,62.820404 360.561066,63.020878 
	C359.763000,59.625576 359.103088,56.725910 358.394562,53.838165 
	C357.969147,52.104214 357.105499,50.398869 357.057495,48.663551 
	C356.626862,33.089970 356.333618,17.512587 356.000000,1.468160 
	C379.020905,1.000000 402.041779,1.000000 425.531342,1.000000 
z"/>
<path fill="#B5A77E" opacity="1.000000" stroke="none" 
	d="
M780.000000,489.545898 
	C764.541748,490.000000 749.083557,490.000000 733.314453,490.000000 
	C733.314453,463.963226 733.314453,438.381775 733.314453,412.399536 
	C736.653137,412.399536 740.022095,412.399536 743.858887,412.399536 
	C743.858887,434.726501 743.858887,456.980530 743.858887,480.000000 
	C755.888184,480.000000 767.475464,480.000000 779.531372,480.000000 
	C780.000000,483.030609 780.000000,486.061188 780.000000,489.545898 
z"/>
<path fill="#B5A77E" opacity="1.000000" stroke="none" 
	d="
M521.379272,457.237579 
	C519.890381,472.020386 507.627625,486.524628 492.067993,488.651550 
	C479.547150,490.363098 466.605682,488.998016 453.421844,488.998016 
	C453.421844,464.063049 453.421844,438.364624 453.421844,412.000000 
	C463.176300,412.000000 472.958862,412.358368 482.707062,411.931763 
	C510.251770,410.726349 524.433716,434.413116 521.379272,457.237579 
M466.736847,422.006592 
	C463.469849,421.746094 464.010895,424.113647 464.009338,426.029877 
	C463.995514,442.988251 463.995972,459.946655 464.023865,476.904999 
	C464.025421,477.840485 464.307617,478.775543 464.565369,480.365967 
	C469.854584,479.898132 474.910187,479.105499 479.971741,479.065857 
	C497.453918,478.928925 512.309753,466.307434 508.975677,445.572601 
	C507.644623,437.294952 503.259979,430.884705 496.088654,426.608032 
	C487.279114,421.354401 477.322815,422.515442 466.736847,422.006592 
z"/>
<path fill="#B5A77E" opacity="1.000000" stroke="none" 
	d="
M599.206787,450.292725 
	C595.596680,452.375153 592.242676,454.195221 588.809692,456.058105 
	C595.583740,466.836945 602.641113,478.066528 609.738525,489.359955 
	C608.982422,489.719269 608.727661,489.906616 608.446289,489.964417 
	C598.646362,491.979065 592.377747,488.443146 588.749329,478.833527 
	C586.689575,473.378418 582.779419,468.637238 579.842041,463.494873 
	C574.832397,454.724518 577.123596,455.603821 565.170715,456.471802 
	C565.170715,467.351532 565.170715,478.279541 565.170715,489.600586 
	C561.347046,489.600586 557.978760,489.600586 554.298950,489.600586 
	C554.298950,463.932922 554.298950,438.345825 554.298950,412.000000 
	C564.236145,412.000000 574.174255,411.708618 584.081482,412.135223 
	C588.387695,412.320618 592.941345,413.305939 596.843384,415.100403 
	C608.321533,420.378998 610.338989,439.435547 601.590454,447.915375 
	C600.872498,448.611298 600.171631,449.324951 599.206787,450.292725 
M568.660522,421.000916 
	C567.450073,421.702454 565.211182,422.370758 565.187317,423.110596 
	C564.932617,430.996735 565.029175,438.894196 565.029175,447.342102 
	C572.113098,446.837738 578.411865,446.801025 584.566040,445.838959 
	C591.139160,444.811432 594.569580,440.184540 594.891541,433.895294 
	C595.176147,428.334900 590.039185,422.727203 584.377319,422.080597 
	C579.474365,421.520691 574.527527,421.345367 568.660522,421.000916 
z"/>
<path fill="#B5A77E" opacity="1.000000" stroke="none" 
	d="
M278.900482,489.999451 
	C276.478485,489.999939 274.523590,489.999939 272.287598,489.999939 
	C272.287598,463.923370 272.287598,438.349945 272.287598,412.387726 
	C275.675415,412.387726 279.042999,412.387726 282.876038,412.387726 
	C282.876038,422.742035 282.876038,432.997589 282.876038,443.622864 
	C296.026123,443.622864 308.723969,443.622864 321.883728,443.622864 
	C321.883728,433.247711 321.883728,422.992310 321.883728,412.372986 
	C326.038605,412.372986 329.740143,412.372986 333.724182,412.372986 
	C333.724182,438.103302 333.724182,463.676666 333.724182,489.625488 
	C329.965240,489.625488 326.264252,489.625488 322.098389,489.625488 
	C322.098389,477.896393 322.098389,466.308960 322.098389,454.364471 
	C308.947510,454.364471 296.249939,454.364471 282.999573,454.364471 
	C282.999573,464.971375 282.937866,475.415588 283.041687,485.858154 
	C283.068665,488.572021 282.764221,490.536377 278.900482,489.999451 
z"/>
<path fill="#B5A77E" opacity="1.000000" stroke="none" 
	d="
M411.884338,455.000000 
	C401.453827,455.000000 391.507019,455.000000 381.283875,455.000000 
	C381.283875,463.430573 381.283875,471.345917 381.283875,479.893829 
	C395.039429,479.893829 408.748718,479.893829 422.721497,479.893829 
	C422.721497,483.437378 422.721497,486.359314 422.721497,489.642334 
	C405.284424,489.642334 387.920654,489.642334 370.277527,489.642334 
	C370.277527,463.898315 370.277527,438.326813 370.277527,412.377197 
	C387.024658,412.377197 403.720306,412.377197 420.709167,412.377197 
	C420.709167,415.412415 420.709167,418.334961 420.709167,421.888367 
	C407.646942,421.888367 394.601624,421.888367 381.285706,421.888367 
	C381.285706,429.760284 381.285706,437.009369 381.285706,444.892822 
	C393.372040,444.892822 405.414368,444.892822 417.721710,444.892822 
	C417.721710,448.437622 417.721710,451.358032 417.721710,455.000000 
	C415.891785,455.000000 414.129913,455.000000 411.884338,455.000000 
z"/>
<path fill="#B5A77E" opacity="1.000000" stroke="none" 
	d="
M38.567299,491.958252 
	C21.765753,487.360626 10.909366,477.137238 7.783094,460.273773 
	C3.513587,437.243500 13.068917,416.158752 37.720692,410.533112 
	C49.457504,407.854736 61.867138,409.110291 71.978249,417.607422 
	C73.535179,418.915833 74.630486,420.773590 75.866028,422.287476 
	C75.324524,422.975952 75.144508,423.261719 74.910927,423.493469 
	C69.721252,428.642822 65.588463,428.867676 58.889576,424.044525 
	C48.493561,416.559448 29.668320,420.447998 22.095930,436.860870 
	C13.990747,454.428467 21.327288,475.249451 39.694138,480.228851 
	C48.446068,482.601562 57.152439,481.621399 63.793312,475.288055 
	C67.845474,471.423615 70.305069,472.342529 73.568169,475.257690 
	C74.786049,476.345734 75.987259,477.452393 77.519089,478.844086 
	C70.331535,486.652985 62.355392,491.632446 51.996811,491.975555 
	C47.672234,492.118805 43.338703,491.991791 38.567299,491.958252 
z"/>
<path fill="#B5A77E" opacity="1.000000" stroke="none" 
	d="
M145.056824,462.859558 
	C140.920502,451.545990 136.844162,440.621521 132.547470,429.106537 
	C126.227699,446.654480 119.982765,463.631470 114.012062,480.704346 
	C110.195763,491.616791 109.393990,492.266846 96.954483,490.482788 
	C100.813126,480.285522 104.594193,470.165833 108.469521,460.082367 
	C113.952896,445.814880 119.550148,431.591003 124.990181,417.307129 
	C126.026749,414.585449 127.148376,412.493469 130.568665,412.984589 
	C133.988846,413.475677 137.672852,411.548462 139.729919,417.035767 
	C148.787552,441.197113 158.449142,465.132080 167.871597,489.156982 
	C167.977554,489.427155 167.813095,489.803375 167.677551,490.962006 
	C164.425354,490.962006 160.963959,491.371826 157.688034,490.770721 
	C156.275360,490.511536 154.780930,488.349213 154.122528,486.727173 
	C150.970596,478.961914 148.092331,471.085571 145.056824,462.859558 
z"/>
<path fill="#B5A77E" opacity="1.000000" stroke="none" 
	d="
M664.244141,432.498535 
	C657.398376,451.362762 650.746033,469.897308 643.912537,488.364807 
	C643.488464,489.510773 641.706421,490.738708 640.442383,490.875275 
	C637.168152,491.229034 633.830322,490.994019 629.798950,490.994019 
	C633.197388,481.925873 636.332275,473.361145 639.612061,464.852325 
	C645.692627,449.078033 651.925232,433.362000 657.927368,417.558167 
	C659.043579,414.619110 660.167358,412.559113 663.796692,412.956848 
	C667.331360,413.344147 670.844849,411.926056 672.835205,417.214691 
	C681.854431,441.179993 691.443481,464.930756 700.802490,488.768524 
	C700.967773,489.189514 700.823181,489.732147 700.823181,490.956512 
	C697.370178,490.956512 693.915894,491.305786 690.598755,490.783783 
	C689.279785,490.576233 687.746948,488.633362 687.189941,487.150482 
	C680.670349,469.794312 674.329590,452.371033 667.904846,434.979065 
	C667.225830,433.140808 666.313110,431.388855 665.484680,429.543060 
	C665.112915,430.434967 664.754639,431.294312 664.244141,432.498535 
z"/>
<path fill="#B5A77E" opacity="1.000000" stroke="none" 
	d="
M207.000000,452.000000 
	C207.000000,441.877319 207.000000,432.254608 207.000000,422.177795 
	C198.647049,422.177795 190.726364,422.177795 182.405304,422.177795 
	C182.405304,418.692078 182.405304,415.657196 182.405304,412.306183 
	C202.368317,412.306183 222.277054,412.306183 242.593597,412.306183 
	C242.593597,415.305756 242.593597,418.340607 242.593597,421.841675 
	C234.630112,421.841675 226.707230,421.841675 218.167480,421.841675 
	C218.167480,444.648560 218.167480,467.012390 218.167480,489.684387 
	C214.304443,489.684387 211.048782,489.684387 207.000000,489.684387 
	C207.000000,477.321838 207.000000,464.910919 207.000000,452.000000 
z"/>
<path fill="none" opacity="1.000000" stroke="none" 
	d="
M358.000000,245.000000 
	C358.000000,226.178680 358.243835,207.853149 357.928711,189.537247 
	C357.636475,172.550858 364.872345,158.657333 374.805481,145.761047 
	C378.423981,141.063126 382.554138,136.762817 386.298248,132.157043 
	C389.341125,128.413879 392.504974,128.785217 395.353760,131.955170 
	C406.805420,144.697769 417.707306,157.826614 422.394501,174.848663 
	C422.611389,175.636215 422.957581,176.431992 422.965881,177.226837 
	C423.298340,208.981262 423.599731,240.736023 423.888184,272.490875 
	C423.890869,272.786804 423.666809,273.084808 423.426636,273.688477 
	C401.962463,273.688477 380.385406,273.688477 358.000000,273.688477 
	C358.000000,264.328613 358.000000,254.914307 358.000000,245.000000 
z"/>
<path fill="none" opacity="1.000000" stroke="none" 
	d="
M289.000732,184.998871 
	C298.073975,170.090439 307.178009,155.612747 315.962555,140.943741 
	C322.355347,130.268585 328.326202,119.340782 335.318054,108.867783 
	C332.349091,116.623894 329.753326,124.548592 326.340515,132.104248 
	C316.442749,154.017151 307.065887,176.228149 295.892090,197.485046 
	C283.582458,220.902695 269.625702,243.462616 256.130219,266.244415 
	C251.363190,274.291626 245.756393,281.837250 240.698013,289.717804 
	C238.093201,293.775848 234.872803,296.209106 230.031952,297.690155 
	C218.897018,301.096924 208.056519,305.465363 197.091232,309.428894 
	C196.357864,309.693970 195.580154,309.836365 193.772064,310.312744 
	C198.592422,304.543640 202.797180,299.621277 206.882233,294.601471 
	C218.936600,279.788910 231.451553,265.315948 242.846146,250.010178 
	C258.643951,228.789764 273.586121,206.932327 289.000732,184.998871 
z"/>
<path fill="none" opacity="1.000000" stroke="none" 
	d="
M584.933105,308.082275 
	C572.117249,303.456055 559.162292,299.167328 546.578552,293.978241 
	C543.222595,292.594360 540.415405,288.820953 538.356995,285.520477 
	C524.611633,263.480865 510.603973,241.576233 497.744568,219.021683 
	C487.550507,201.141876 478.351654,182.639908 469.671295,163.967728 
	C461.572784,146.547241 454.736694,128.539703 447.366272,110.781700 
	C447.128876,110.209785 447.125519,109.540718 447.600800,108.650185 
	C450.929535,114.479515 454.184113,120.352707 457.601074,126.129822 
	C467.312836,142.549515 476.472351,159.339066 486.984711,175.231979 
	C503.571381,200.308273 520.743408,225.017975 538.340271,249.397354 
	C547.963501,262.729675 558.945190,275.083557 569.359253,287.841919 
	C574.569702,294.225250 579.880859,300.526276 585.160400,307.320007 
	C585.174377,307.775543 584.933105,308.082275 584.933105,308.082275 
z"/>
<path fill="none" opacity="1.000000" stroke="none" 
	d="
M246.580231,291.471008 
	C252.252213,282.630463 258.163818,273.932983 263.545105,264.918884 
	C273.998505,247.408722 284.673950,229.999008 294.290314,212.030121 
	C304.394684,193.149384 313.750183,173.839249 322.709381,154.383575 
	C329.566010,139.493820 335.296509,124.085480 342.247040,109.024170 
	C341.054352,114.235229 339.989105,119.479301 338.648499,124.652016 
	C329.489868,159.990646 318.388855,194.688995 303.408661,228.026093 
	C295.236023,246.213516 286.499329,264.148865 277.859192,282.122009 
	C277.229767,283.431305 275.449036,284.600677 273.971924,285.020874 
	C265.306610,287.485901 256.572449,289.708740 247.344345,291.893463 
	C246.827194,291.773651 246.580231,291.471008 246.580231,291.471008 
z"/>
<path fill="none" opacity="1.000000" stroke="none" 
	d="
M520.823120,287.074890 
	C516.872253,286.303009 513.357605,285.446167 509.795258,284.901520 
	C506.027588,284.325439 504.020721,282.170410 502.302460,278.835266 
	C483.724487,242.775360 467.705719,205.628845 455.587067,166.912430 
	C449.765198,148.312820 445.178284,129.326447 440.066559,110.505859 
	C439.914001,109.944183 440.148407,109.277405 440.311523,107.410309 
	C464.585541,172.970825 496.063141,233.496964 535.648804,291.111664 
	C530.151123,289.591553 525.694763,288.359375 520.823120,287.074890 
z"/>
<path fill="none" opacity="1.000000" stroke="none" 
	d="
M342.995514,129.054077 
	C343.503937,126.976746 343.990723,125.306473 344.477478,123.636200 
	C344.739471,123.686790 345.001434,123.737381 345.263428,123.787971 
	C344.137787,130.888107 343.336700,138.058044 341.827423,145.075668 
	C336.694000,168.944290 331.707489,192.856430 325.894104,216.562973 
	C321.444458,234.708374 315.544525,252.494675 310.885284,270.594025 
	C309.228729,277.029083 305.497681,279.241608 299.628723,279.992157 
	C294.622498,280.632385 289.672821,281.715118 283.907654,282.743042 
	C284.659241,281.084991 285.217346,279.688385 285.905701,278.359192 
	C304.638763,242.187057 320.255280,204.714661 332.511017,165.869690 
	C336.309143,153.831451 339.503235,141.602676 342.995514,129.054077 
z"/>
<path fill="none" opacity="1.000000" stroke="none" 
	d="
M446.920715,177.196655 
	C443.369324,159.126984 439.869598,141.484100 436.369843,123.841209 
	C436.810455,123.737503 437.251038,123.633797 437.691620,123.530090 
	C451.356903,178.611328 471.231995,231.336258 498.033051,281.802124 
	C490.700348,280.787323 484.071045,279.849365 477.435272,278.959534 
	C473.782196,278.469635 472.844879,275.656769 472.048279,272.752960 
	C465.019073,247.130219 457.952911,221.517395 451.034454,195.864746 
	C449.413971,189.856186 448.312592,183.707596 446.920715,177.196655 
z"/>
<path fill="none" opacity="1.000000" stroke="none" 
	d="
M440.000000,181.007507 
	C440.000000,178.297745 440.000000,176.051041 440.000000,175.202881 
	C448.713959,208.288437 457.743561,242.572449 466.869385,277.221741 
	C460.987732,276.592621 454.759766,276.162140 448.642792,275.095306 
	C447.233765,274.849548 445.257996,272.486237 445.156158,270.987823 
	C444.516785,261.578552 444.456238,252.132004 443.973145,242.709641 
	C443.059937,224.899246 442.012665,207.095551 440.961945,189.292572 
	C440.807465,186.675430 440.328705,184.077423 440.000000,181.007507 
z"/>
<path fill="none" opacity="1.000000" stroke="none" 
	d="
M338.000000,242.068451 
	C337.434784,252.884064 336.869598,263.216461 336.302063,273.591278 
	C328.626617,274.801636 321.722595,275.890320 315.204987,276.918091 
	C324.194397,242.914841 333.161987,208.994141 341.998688,175.568558 
	C341.513977,183.309402 340.995850,191.697006 340.449677,200.082794 
	C340.407562,200.729645 340.068695,201.358414 340.034760,202.004364 
	C339.341888,215.197205 338.673370,228.391342 338.000000,242.068451 
z"/>
<path fill="none" opacity="1.000000" stroke="none" 
	d="
M400.000000,98.886902 
	C400.000000,101.006973 400.000000,102.643150 400.000000,104.638565 
	C393.947754,104.638565 388.254791,104.638565 381.593323,104.638565 
	C382.046021,95.265854 382.126984,86.047356 383.093628,76.922684 
	C383.542023,72.689690 385.850250,67.752190 390.955078,68.300087 
	C395.464386,68.784065 398.601135,72.745796 398.988220,77.658188 
	C399.531830,84.556870 399.681732,91.486580 400.000000,98.886902 
z"/>
<path fill="none" opacity="1.000000" stroke="none" 
	d="
M375.000000,95.990692 
	C375.000000,99.103210 375.000000,101.728935 375.000000,104.674690 
	C369.661285,104.674690 364.749451,104.674690 358.730255,104.674690 
	C359.103149,98.235115 359.328644,91.731018 359.906555,85.258392 
	C360.307251,80.770805 363.486176,78.159439 367.528320,77.391739 
	C370.114777,76.900513 374.649292,83.162613 374.946564,87.028984 
	C375.162537,89.838715 374.995972,92.677864 375.000000,95.990692 
z"/>
<path fill="none" opacity="1.000000" stroke="none" 
	d="
M407.000427,100.816422 
	C407.000031,96.188736 406.959198,92.038200 407.024261,87.889336 
	C407.044556,86.596596 406.887329,84.872993 407.613373,84.099167 
	C409.848053,81.717430 412.337006,78.148636 414.975403,77.921204 
	C418.516724,77.615929 421.437714,81.121109 421.919403,84.998444 
	C422.707581,91.343147 422.950226,97.755623 423.484406,104.968582 
	C418.194122,104.968582 413.612823,105.138847 409.068848,104.803604 
	C408.297394,104.746689 407.686127,102.518997 407.000427,100.816422 
z"/>
<path fill="none" opacity="1.000000" stroke="none" 
	d="
M246.947357,291.927643 
	C246.580994,292.288849 246.094452,292.496063 245.607910,292.703278 
	C245.772491,292.370728 245.937057,292.038177 246.340927,291.588318 
	C246.580231,291.471008 246.827194,291.773651 246.947357,291.927643 
z"/>
<path fill="none" opacity="1.000000" stroke="none" 
	d="
M585.298706,307.625153 
	C585.766113,307.868195 586.109192,308.261658 586.452332,308.655090 
	C586.035217,308.627411 585.618164,308.599731 585.067078,308.327148 
	C584.933105,308.082275 585.174377,307.775543 585.298706,307.625153 
z"/>
<path fill="none" opacity="1.000000" stroke="none" 
	d="
M467.211304,422.003723 
	C477.322815,422.515442 487.279114,421.354401 496.088654,426.608032 
	C503.259979,430.884705 507.644623,437.294952 508.975677,445.572601 
	C512.309753,466.307434 497.453918,478.928925 479.971741,479.065857 
	C474.910187,479.105499 469.854584,479.898132 464.565369,480.365967 
	C464.307617,478.775543 464.025421,477.840485 464.023865,476.904999 
	C463.995972,459.946655 463.995514,442.988251 464.009338,426.029877 
	C464.010895,424.113647 463.469849,421.746094 467.211304,422.003723 
z"/>
<path fill="none" opacity="1.000000" stroke="none" 
	d="
M569.130249,421.000488 
	C574.527527,421.345367 579.474365,421.520691 584.377319,422.080597 
	C590.039185,422.727203 595.176147,428.334900 594.891541,433.895294 
	C594.569580,440.184540 591.139160,444.811432 584.566040,445.838959 
	C578.411865,446.801025 572.113098,446.837738 565.029175,447.342102 
	C565.029175,438.894196 564.932617,430.996735 565.187317,423.110596 
	C565.211182,422.370758 567.450073,421.702454 569.130249,421.000488 
z"/>
</svg>